HIERARCHY
ROOT mixamorig:Hips
{
  OFFSET 0 98.0000 0
  CHANNELS 6 Xposition Yposition Zposition Zrotation Xrotation Yrotation
  JOINT mixamorig:Spine
  {
    OFFSET 0 8.0000 0
    CHANNELS 3 Zrotation Xrotation Yrotation
    JOINT mixamorig:Spine1
    {
      OFFSET 0 12.0000 0
      CHANNELS 3 Zrotation Xrotation Yrotation
      JOINT mixamorig:Spine2
      {
        OFFSET 0 12.0000 0
        CHANNELS 3 Zrotation Xrotation Yrotation
        JOINT mixamorig:Neck
        {
          OFFSET 0 16.0000 0
          CHANNELS 3 Zrotation Xrotation Yrotation
          JOINT mixamorig:Head
          {
            OFFSET 0 9.0000 1.0000
            CHANNELS 3 Zrotation Xrotation Yrotation
            End Site
            {
              OFFSET 0 18.0000 0
            }
          }
        }
        JOINT mixamorig:LeftShoulder
        {
          OFFSET 3.0000 12.0000 0
          CHANNELS 3 Zrotation Xrotation Yrotation
          JOINT mixamorig:LeftArm
          {
            OFFSET 13.0000 0 0
            CHANNELS 3 Zrotation Xrotation Yrotation
            JOINT mixamorig:LeftForeArm
            {
              OFFSET 27.0000 0 0
              CHANNELS 3 Zrotation Xrotation Yrotation
              JOINT mixamorig:LeftHand
              {
                OFFSET 25.0000 0 0
                CHANNELS 3 Zrotation Xrotation Yrotation
                JOINT mixamorig:LeftHandThumb1
                {
                  OFFSET 2.5000 -1.0000 3.0000
                  CHANNELS 3 Zrotation Xrotation Yrotation
                  JOINT mixamorig:LeftHandThumb2
                  {
                    OFFSET 3.0000 0 2.0000
                    CHANNELS 3 Zrotation Xrotation Yrotation
                    JOINT mixamorig:LeftHandThumb3
                    {
                      OFFSET 2.5000 0 1.5000
                      CHANNELS 3 Zrotation Xrotation Yrotation
                      JOINT mixamorig:LeftHandThumb4
                      {
                        OFFSET 2.0000 0 1.0000
                        CHANNELS 3 Zrotation Xrotation Yrotation
                        End Site
                        {
                          OFFSET 0.6000 0 0
                        }
                      }
                    }
                  }
                }
                JOINT mixamorig:LeftHandIndex1
                {
                  OFFSET 9.0000 0 2.5000
                  CHANNELS 3 Zrotation Xrotation Yrotation
                  JOINT mixamorig:LeftHandIndex2
                  {
                    OFFSET 4.0000 0 0
                    CHANNELS 3 Zrotation Xrotation Yrotation
                    JOINT mixamorig:LeftHandIndex3
                    {
                      OFFSET 2.5000 0 0
                      CHANNELS 3 Zrotation Xrotation Yrotation
                      JOINT mixamorig:LeftHandIndex4
                      {
                        OFFSET 2.0000 0 0
                        CHANNELS 3 Zrotation Xrotation Yrotation
                        End Site
                        {
                          OFFSET 0.6000 0 0
                        }
                      }
                    }
                  }
                }
                JOINT mixamorig:LeftHandMiddle1
                {
                  OFFSET 9.5000 0 0.8000
                  CHANNELS 3 Zrotation Xrotation Yrotation
                  JOINT mixamorig:LeftHandMiddle2
                  {
                    OFFSET 4.5000 0 0
                    CHANNELS 3 Zrotation Xrotation Yrotation
                    JOINT mixamorig:LeftHandMiddle3
                    {
                      OFFSET 2.8000 0 0
                      CHANNELS 3 Zrotation Xrotation Yrotation
                      JOINT mixamorig:LeftHandMiddle4
                      {
                        OFFSET 2.1000 0 0
                        CHANNELS 3 Zrotation Xrotation Yrotation
                        End Site
                        {
                          OFFSET 0.6000 0 0
                        }
                      }
                    }
                  }
                }
                JOINT mixamorig:LeftHandRing1
                {
                  OFFSET 9.0000 0 -0.9000
                  CHANNELS 3 Zrotation Xrotation Yrotation
                  JOINT mixamorig:LeftHandRing2
                  {
                    OFFSET 4.2000 0 0
                    CHANNELS 3 Zrotation Xrotation Yrotation
                    JOINT mixamorig:LeftHandRing3
                    {
                      OFFSET 2.6000 0 0
                      CHANNELS 3 Zrotation Xrotation Yrotation
                      JOINT mixamorig:LeftHandRing4
                      {
                        OFFSET 2.0000 0 0
                        CHANNELS 3 Zrotation Xrotation Yrotation
                        End Site
                        {
                          OFFSET 0.6000 0 0
                        }
                      }
                    }
                  }
                }
                JOINT mixamorig:LeftHandPinky1
                {
                  OFFSET 8.0000 0 -2.5000
                  CHANNELS 3 Zrotation Xrotation Yrotation
                  JOINT mixamorig:LeftHandPinky2
                  {
                    OFFSET 3.3000 0 0
                    CHANNELS 3 Zrotation Xrotation Yrotation
                    JOINT mixamorig:LeftHandPinky3
                    {
                      OFFSET 2.0000 0 0
                      CHANNELS 3 Zrotation Xrotation Yrotation
                      JOINT mixamorig:LeftHandPinky4
                      {
                        OFFSET 1.7000 0 0
                        CHANNELS 3 Zrotation Xrotation Yrotation
                        End Site
                        {
                          OFFSET 0.6000 0 0
                        }
                      }
                    }
                  }
                }
                End Site
                {
                  OFFSET 8.0000 0 0
                }
              }
            }
          }
        }
        JOINT mixamorig:RightShoulder
        {
          OFFSET -3.0000 12.0000 0
          CHANNELS 3 Zrotation Xrotation Yrotation
          JOINT mixamorig:RightArm
          {
            OFFSET -13.0000 0 0
            CHANNELS 3 Zrotation Xrotation Yrotation
            JOINT mixamorig:RightForeArm
            {
              OFFSET -27.0000 0 0
              CHANNELS 3 Zrotation Xrotation Yrotation
              JOINT mixamorig:RightHand
              {
                OFFSET -25.0000 0 0
                CHANNELS 3 Zrotation Xrotation Yrotation
                JOINT mixamorig:RightHandThumb1
                {
                  OFFSET -2.5000 -1.0000 3.0000
                  CHANNELS 3 Zrotation Xrotation Yrotation
                  JOINT mixamorig:RightHandThumb2
                  {
                    OFFSET -3.0000 0 2.0000
                    CHANNELS 3 Zrotation Xrotation Yrotation
                    JOINT mixamorig:RightHandThumb3
                    {
                      OFFSET -2.5000 0 1.5000
                      CHANNELS 3 Zrotation Xrotation Yrotation
                      JOINT mixamorig:RightHandThumb4
                      {
                        OFFSET -2.0000 0 1.0000
                        CHANNELS 3 Zrotation Xrotation Yrotation
                        End Site
                        {
                          OFFSET -0.6000 0 0
                        }
                      }
                    }
                  }
                }
                JOINT mixamorig:RightHandIndex1
                {
                  OFFSET -9.0000 0 2.5000
                  CHANNELS 3 Zrotation Xrotation Yrotation
                  JOINT mixamorig:RightHandIndex2
                  {
                    OFFSET -4.0000 0 0
                    CHANNELS 3 Zrotation Xrotation Yrotation
                    JOINT mixamorig:RightHandIndex3
                    {
                      OFFSET -2.5000 0 0
                      CHANNELS 3 Zrotation Xrotation Yrotation
                      JOINT mixamorig:RightHandIndex4
                      {
                        OFFSET -2.0000 0 0
                        CHANNELS 3 Zrotation Xrotation Yrotation
                        End Site
                        {
                          OFFSET -0.6000 0 0
                        }
                      }
                    }
                  }
                }
                JOINT mixamorig:RightHandMiddle1
                {
                  OFFSET -9.5000 0 0.8000
                  CHANNELS 3 Zrotation Xrotation Yrotation
                  JOINT mixamorig:RightHandMiddle2
                  {
                    OFFSET -4.5000 0 0
                    CHANNELS 3 Zrotation Xrotation Yrotation
                    JOINT mixamorig:RightHandMiddle3
                    {
                      OFFSET -2.8000 0 0
                      CHANNELS 3 Zrotation Xrotation Yrotation
                      JOINT mixamorig:RightHandMiddle4
                      {
                        OFFSET -2.1000 0 0
                        CHANNELS 3 Zrotation Xrotation Yrotation
                        End Site
                        {
                          OFFSET -0.6000 0 0
                        }
                      }
                    }
                  }
                }
                JOINT mixamorig:RightHandRing1
                {
                  OFFSET -9.0000 0 -0.9000
                  CHANNELS 3 Zrotation Xrotation Yrotation
                  JOINT mixamorig:RightHandRing2
                  {
                    OFFSET -4.2000 0 0
                    CHANNELS 3 Zrotation Xrotation Yrotation
                    JOINT mixamorig:RightHandRing3
                    {
                      OFFSET -2.6000 0 0
                      CHANNELS 3 Zrotation Xrotation Yrotation
                      JOINT mixamorig:RightHandRing4
                      {
                        OFFSET -2.0000 0 0
                        CHANNELS 3 Zrotation Xrotation Yrotation
                        End Site
                        {
                          OFFSET -0.6000 0 0
                        }
                      }
                    }
                  }
                }
                JOINT mixamorig:RightHandPinky1
                {
                  OFFSET -8.0000 0 -2.5000
                  CHANNELS 3 Zrotation Xrotation Yrotation
                  JOINT mixamorig:RightHandPinky2
                  {
                    OFFSET -3.3000 0 0
                    CHANNELS 3 Zrotation Xrotation Yrotation
                    JOINT mixamorig:RightHandPinky3
                    {
                      OFFSET -2.0000 0 0
                      CHANNELS 3 Zrotation Xrotation Yrotation
                      JOINT mixamorig:RightHandPinky4
                      {
                        OFFSET -1.7000 0 0
                        CHANNELS 3 Zrotation Xrotation Yrotation
                        End Site
                        {
                          OFFSET -0.6000 0 0
                        }
                      }
                    }
                  }
                }
                End Site
                {
                  OFFSET -8.0000 0 0
                }
              }
            }
          }
        }
      }
    }
  }
  JOINT mixamorig:LeftUpLeg
  {
    OFFSET 9.0000 -6.0000 0
    CHANNELS 3 Zrotation Xrotation Yrotation
    JOINT mixamorig:LeftLeg
    {
      OFFSET 0 -43.0000 0
      CHANNELS 3 Zrotation Xrotation Yrotation
      JOINT mixamorig:LeftFoot
      {
        OFFSET 0 -41.0000 0
        CHANNELS 3 Zrotation Xrotation Yrotation
        JOINT mixamorig:LeftToeBase
        {
          OFFSET 0 -7.0000 12.0000
          CHANNELS 3 Zrotation Xrotation Yrotation
          End Site
          {
            OFFSET 0 0 5.0000
          }
        }
      }
    }
  }
  JOINT mixamorig:RightUpLeg
  {
    OFFSET -9.0000 -6.0000 0
    CHANNELS 3 Zrotation Xrotation Yrotation
    JOINT mixamorig:RightLeg
    {
      OFFSET 0 -43.0000 0
      CHANNELS 3 Zrotation Xrotation Yrotation
      JOINT mixamorig:RightFoot
      {
        OFFSET 0 -41.0000 0
        CHANNELS 3 Zrotation Xrotation Yrotation
        JOINT mixamorig:RightToeBase
        {
          OFFSET 0 -7.0000 12.0000
          CHANNELS 3 Zrotation Xrotation Yrotation
          End Site
          {
            OFFSET 0 0 5.0000
          }
        }
      }
    }
  }
}
MOTION
Frames: 12
Frame Time: 0.0416667
0 98.0000 0 0 0 0 0 0 0 0 8.0000 0 0 0 0 0 5.0000 0 0 10.0000 0 0 0 0 -60.0000 0 0 0 0 -70.0000 15.0000 0 0 0 0 0 0 0 0 0 0 0 0 0 0 -30.0000 0 0 -30.0000 0 0 -30.0000 0 0 0 0 0 0 0 0 0 0 0 0 0 0 0 0 0 0 0 0 0 0 0 0 0 0 0 0 0 0 0 0 0 0 0 0 0 0 0 0 0 0 0 0 70.0000 0 0 0 0 75.0000 0 -15.0000 0 0 0 0 0 0 0 0 0 0 0 0 0 0 0 0 0 0 0 0 0 0 0 0 0 0 0 0 0 0 0 0 0 0 0 0 0 0 0 0 0 0 0 0 0 0 0 0 0 0 0 0 0 0 0 0 0 0 0 0 0 0 -20.0000 0 0 50.0000 0 0 10.0000 0 0 0 0 0 -20.0000 0 0 50.0000 0 0 0 0 0 0 0
0 98.7765 2.0833 0 0 1.3053 0 0 0 0 8.7832 0 0 0 -0.7832 0 4.9572 0 -0.6839 9.8911 3.9750 0 0 0 -59.9597 2.8256 -1.6329 0 0 -73.9158 14.8717 2.6105 0 0 0 0 0 0 0 0 0 0 0 0 0 -33.9158 0 0 -33.9158 0 0 -33.9158 0 0 0 0 0 0 0 0 0 0 0 0 0 0 0 0 0 0 0 0 0 0 0 0 0 0 0 0 0 0 0 0 0 0 0 0 0 0 0 0 0 0 0 0 69.9809 2.4530 0.8934 0 0 74.8717 0 -14.8717 0 0 0 0 0 0 0 0 0 0 0 0 0 0 0 0 0 0 0 0 0 0 0 0 0 0 0 0 0 0 0 0 0 0 0 0 0 0 0 0 0 0 0 0 0 0 0 0 0 0 0 0 0 0 0 0 0 0 0 0 0 0 -23.2632 0 0 53.2632 0 0 9.9144 0 0 0 0 0 -16.7368 0 0 46.7368 0 0 0 0 0 0 0
0 99.5000 4.1667 0 0 2.5882 0 0 0 0 9.5529 0 0 0 -1.5529 0 4.8296 0 -1.3173 9.5699 7.8748 0 0 0 -59.8412 5.6006 -3.2456 0 0 -77.7646 14.4889 5.1764 0 0 0 0 0 0 0 0 0 0 0 0 0 -37.7646 0 0 -37.7646 0 0 -37.7646 0 0 0 0 0 0 0 0 0 0 0 0 0 0 0 0 0 0 0 0 0 0 0 0 0 0 0 0 0 0 0 0 0 0 0 0 0 0 0 0 0 0 0 0 69.9246 4.8634 1.7747 0 0 74.4889 0 -14.4889 0 0 0 0 0 0 0 0 0 0 0 0 0 0 0 0 0 0 0 0 0 0 0 0 0 0 0 0 0 0 0 0 0 0 0 0 0 0 0 0 0 0 0 0 0 0 0 0 0 0 0 0 0 0 0 0 0 0 0 0 0 0 -26.4705 0 0 56.4705 0 0 9.6593 0 0 0 0 0 -13.5295 0 0 43.5295 0 0 0 0 0 0 0
0 100.1213 6.2500 0 0 3.8268 0 0 0 0 10.2961 0 0 0 -2.2961 0 4.6194 0 -1.8543 9.0524 11.6273 0 0 0 -59.6513 8.2756 -4.8171 0 0 -81.4805 13.8582 7.6537 0 0 0 0 0 0 0 0 0 0 0 0 0 -41.4805 0 0 -41.4805 0 0 -41.4805 0 0 0 0 0 0 0 0 0 0 0 0 0 0 0 0 0 0 0 0 0 0 0 0 0 0 0 0 0 0 0 0 0 0 0 0 0 0 0 0 0 0 0 0 69.8346 7.1896 2.6315 0 0 73.8582 0 -13.8582 0 0 0 0 0 0 0 0 0 0 0 0 0 0 0 0 0 0 0 0 0 0 0 0 0 0 0 0 0 0 0 0 0 0 0 0 0 0 0 0 0 0 0 0 0 0 0 0 0 0 0 0 0 0 0 0 0 0 0 0 0 0 -29.5671 0 0 59.5671 0 0 9.2388 0 0 0 0 0 -10.4329 0 0 40.4329 0 0 0 0 0 0 0
0 100.5981 8.3333 0 0 5.0000 0 0 0 0 11.0000 0 0 0 -3.0000 0 4.3301 0 -2.2575 8.3630 15.1651 0 0 0 -59.4013 10.8036 -6.3253 0 0 -85.0000 12.9904 10.0000 0 0 0 0 0 0 0 0 0 0 0 0 0 -45.0000 0 0 -45.0000 0 0 -45.0000 0 0 0 0 0 0 0 0 0 0 0 0 0 0 0 0 0 0 0 0 0 0 0 0 0 0 0 0 0 0 0 0 0 0 0 0 0 0 0 0 0 0 0 0 69.7164 9.3913 3.4512 0 0 72.9904 0 -12.9904 0 0 0 0 0 0 0 0 0 0 0 0 0 0 0 0 0 0 0 0 0 0 0 0 0 0 0 0 0 0 0 0 0 0 0 0 0 0 0 0 0 0 0 0 0 0 0 0 0 0 0 0 0 0 0 0 0 0 0 0 0 0 -32.5000 0 0 62.5000 0 0 8.6603 0 0 0 0 0 -7.5000 0 0 37.5000 0 0 0 0 0 0 0
0 100.8978 10.4167 0 0 6.0876 0 0 0 0 11.6526 0 0 0 -3.6526 0 3.9668 0 -2.5006 7.5315 18.4275 0 0 0 -59.1065 13.1405 -7.7461 0 0 -88.2628 11.9003 12.1752 0 0 0 0 0 0 0 0 0 0 0 0 0 -48.2628 0 0 -48.2628 0 0 -48.2628 0 0 0 0 0 0 0 0 0 0 0 0 0 0 0 0 0 0 0 0 0 0 0 0 0 0 0 0 0 0 0 0 0 0 0 0 0 0 0 0 0 0 0 0 69.5774 11.4307 4.2204 0 0 71.9003 0 -11.9003 0 0 0 0 0 0 0 0 0 0 0 0 0 0 0 0 0 0 0 0 0 0 0 0 0 0 0 0 0 0 0 0 0 0 0 0 0 0 0 0 0 0 0 0 0 0 0 0 0 0 0 0 0 0 0 0 0 0 0 0 0 0 -35.2190 0 0 65.2190 0 0 7.9335 0 0 0 0 0 -4.7810 0 0 34.7810 0 0 0 0 0 0 0
0 101.0000 12.5000 0 0 7.0711 0 0 0 0 12.2426 0 0 0 -4.2426 0 3.5355 0 -2.5699 6.5897 21.3612 0 0 0 -58.7856 15.2469 -9.0543 0 0 -91.2132 10.6066 14.1421 0 0 0 0 0 0 0 0 0 0 0 0 0 -51.2132 0 0 -51.2132 0 0 -51.2132 0 0 0 0 0 0 0 0 0 0 0 0 0 0 0 0 0 0 0 0 0 0 0 0 0 0 0 0 0 0 0 0 0 0 0 0 0 0 0 0 0 0 0 0 69.4266 13.2731 4.9254 0 0 70.6066 0 -10.6066 0 0 0 0 0 0 0 0 0 0 0 0 0 0 0 0 0 0 0 0 0 0 0 0 0 0 0 0 0 0 0 0 0 0 0 0 0 0 0 0 0 0 0 0 0 0 0 0 0 0 0 0 0 0 0 0 0 0 0 0 0 0 -37.6777 0 0 67.6777 0 0 7.0711 0 0 0 0 0 -2.3223 0 0 32.3223 0 0 0 0 0 0 0
0 100.8978 14.5833 0 0 7.9335 0 0 0 0 12.7601 0 0 0 -4.7601 0 3.0438 0 -2.4645 5.5682 23.9205 0 0 0 -58.4601 17.0878 -10.2231 0 0 -93.8006 9.1314 15.8671 0 0 0 0 0 0 0 0 0 0 0 0 0 -53.8006 0 0 -53.8006 0 0 -53.8006 0 0 0 0 0 0 0 0 0 0 0 0 0 0 0 0 0 0 0 0 0 0 0 0 0 0 0 0 0 0 0 0 0 0 0 0 0 0 0 0 0 0 0 0 69.2740 14.8873 5.5525 0 0 69.1314 0 -9.1314 0 0 0 0 0 0 0 0 0 0 0 0 0 0 0 0 0 0 0 0 0 0 0 0 0 0 0 0 0 0 0 0 0 0 0 0 0 0 0 0 0 0 0 0 0 0 0 0 0 0 0 0 0 0 0 0 0 0 0 0 0 0 -39.8338 0 0 69.8338 0 0 6.0876 0 0 0 0 0 -0.1662 0 0 30.1662 0 0 0 0 0 0 0
0 100.5981 16.6667 0 0 8.6603 0 0 0 0 13.1962 0 0 0 -5.1962 0 2.5000 0 -2.1948 4.4936 26.0669 0 0 0 -58.1525 18.6337 -11.2259 0 0 -95.9808 7.5000 17.3205 0 0 0 0 0 0 0 0 0 0 0 0 0 -55.9808 0 0 -55.9808 0 0 -55.9808 0 0 0 0 0 0 0 0 0 0 0 0 0 0 0 0 0 0 0 0 0 0 0 0 0 0 0 0 0 0 0 0 0 0 0 0 0 0 0 0 0 0 0 0 69.1302 16.2460 6.0882 0 0 67.5000 0 -7.5000 0 0 0 0 0 0 0 0 0 0 0 0 0 0 0 0 0 0 0 0 0 0 0 0 0 0 0 0 0 0 0 0 0 0 0 0 0 0 0 0 0 0 0 0 0 0 0 0 0 0 0 0 0 0 0 0 0 0 0 0 0 0 -41.6506 0 0 71.6506 0 0 5.0000 0 0 0 0 0 1.6506 0 0 28.3494 0 0 0 0 0 0 0
0 100.1213 18.7500 0 0 9.2388 0 0 0 0 13.5433 0 0 0 -5.5433 0 1.9134 0 -1.7819 3.3872 27.7691 0 0 0 -57.8851 19.8605 -12.0373 0 0 -97.7164 5.7403 18.4776 0 0 0 0 0 0 0 0 0 0 0 0 0 -57.7164 0 0 -57.7164 0 0 -57.7164 0 0 0 0 0 0 0 0 0 0 0 0 0 0 0 0 0 0 0 0 0 0 0 0 0 0 0 0 0 0 0 0 0 0 0 0 0 0 0 0 0 0 0 0 69.0055 17.3267 6.5200 0 0 65.7403 0 -5.7403 0 0 0 0 0 0 0 0 0 0 0 0 0 0 0 0 0 0 0 0 0 0 0 0 0 0 0 0 0 0 0 0 0 0 0 0 0 0 0 0 0 0 0 0 0 0 0 0 0 0 0 0 0 0 0 0 0 0 0 0 0 0 -43.0970 0 0 73.0970 0 0 3.8268 0 0 0 0 0 3.0970 0 0 26.9030 0 0 0 0 0 0 0
0 99.5000 20.8333 0 0 9.6593 0 0 0 0 13.7956 0 0 0 -5.7956 0 1.2941 0 -1.2546 2.2640 29.0026 0 0 0 -57.6777 20.7499 -12.6349 0 0 -98.9778 3.8823 19.3185 0 0 0 0 0 0 0 0 0 0 0 0 0 -58.9778 0 0 -58.9778 0 0 -58.9778 0 0 0 0 0 0 0 0 0 0 0 0 0 0 0 0 0 0 0 0 0 0 0 0 0 0 0 0 0 0 0 0 0 0 0 0 0 0 0 0 0 0 0 0 68.9090 18.1116 6.8370 0 0 63.8823 0 -3.8823 0 0 0 0 0 0 0 0 0 0 0 0 0 0 0 0 0 0 0 0 0 0 0 0 0 0 0 0 0 0 0 0 0 0 0 0 0 0 0 0 0 0 0 0 0 0 0 0 0 0 0 0 0 0 0 0 0 0 0 0 0 0 -44.1481 0 0 74.1481 0 0 2.5882 0 0 0 0 0 4.1481 0 0 25.8519 0 0 0 0 0 0 0
0 98.7765 22.9167 0 0 9.9144 0 0 0 0 13.9487 0 0 0 -5.9487 0 0.6526 0 -0.6476 1.1333 29.7498 0 0 0 -57.5464 21.2886 -13.0009 0 0 -99.7433 1.9579 19.8289 0 0 0 0 0 0 0 0 0 0 0 0 0 -59.7433 0 0 -59.7433 0 0 -59.7433 0 0 0 0 0 0 0 0 0 0 0 0 0 0 0 0 0 0 0 0 0 0 0 0 0 0 0 0 0 0 0 0 0 0 0 0 0 0 0 0 0 0 0 0 68.8480 18.5877 7.0308 0 0 61.9579 0 -1.9579 0 0 0 0 0 0 0 0 0 0 0 0 0 0 0 0 0 0 0 0 0 0 0 0 0 0 0 0 0 0 0 0 0 0 0 0 0 0 0 0 0 0 0 0 0 0 0 0 0 0 0 0 0 0 0 0 0 0 0 0 0 0 -44.7861 0 0 74.7861 0 0 1.3053 0 0 0 0 0 4.7861 0 0 25.2139 0 0 0 0 0 0 0
